<svg width="425" height="205" viewBox="0 0 425 205" fill="none" xmlns="http://www.w3.org/2000/svg">
<path d="M1 1L1 171.958H238.742V1H1Z" stroke="#333131"/>
<path d="M95.4598 69.9235C95.5304 69.9235 96.0965 69.5818 97.158 68.8986C98.2192 68.1531 99.6696 67.4387 101.51 66.7552C103.42 66.072 105.33 65.7303 107.241 65.7303C108.231 65.7303 109.187 65.8235 110.106 66.0098C111.026 66.1962 111.875 66.4447 112.654 66.7552C113.432 67.0659 114.14 67.4076 114.776 67.7802C115.484 68.1531 116.085 68.5256 116.581 68.8986C117.076 69.2711 117.5 69.6128 117.854 69.9235C118.208 70.172 118.491 70.3895 118.703 70.5757L119.022 70.9485C119.092 71.0105 119.234 71.0417 119.446 71.0417C119.659 71.0417 119.835 71.0105 119.977 70.9485C120.118 70.8864 120.26 70.7932 120.401 70.669C120.614 70.4825 121.038 70.203 121.675 69.8303C122.312 69.4575 123.09 69.0226 124.01 68.5256C127.619 66.6622 131.121 65.7303 134.517 65.7303C137.701 65.7303 140.638 66.569 143.327 68.2461C146.015 69.8613 147.961 72.4704 149.164 76.0734C150.013 78.7447 150.438 82.472 150.438 87.2552V99.369C150.438 99.8037 150.438 100.176 150.438 100.487C150.508 100.798 150.614 101.077 150.756 101.326C150.968 101.512 151.11 101.667 151.18 101.792C151.251 101.916 151.463 102.04 151.817 102.164C152.242 102.289 152.525 102.382 152.666 102.444C152.879 102.444 153.339 102.506 154.046 102.63C154.754 102.755 155.284 102.848 155.638 102.91C156.629 103.034 157.124 103.624 157.124 104.68C157.124 105.923 156.593 106.544 155.532 106.544C155.39 106.544 154.931 106.482 154.152 106.358C153.374 106.295 152.277 106.202 150.862 106.078C149.447 106.016 147.961 105.985 146.404 105.985C144.777 105.985 143.256 106.016 141.841 106.078C140.496 106.202 139.399 106.295 138.55 106.358C137.772 106.482 137.312 106.544 137.171 106.544C136.746 106.544 136.322 106.42 135.897 106.171C135.543 105.923 135.366 105.519 135.366 104.96C135.366 104.09 135.579 103.562 136.003 103.376C136.499 103.189 137.984 102.879 140.461 102.444C141.947 102.258 142.69 101.388 142.69 99.8347V86.603C142.69 79.6454 141.204 75.0174 138.232 72.7189C136.18 71.2902 133.916 70.5757 131.439 70.5757C129.246 70.5757 127.053 71.1037 124.859 72.1599C122.666 73.2158 121.569 74.1477 121.569 74.9552L121.675 75.2347C121.675 75.4212 121.71 75.7007 121.781 76.0734C121.852 76.4461 121.923 76.8811 121.993 77.3781C122.064 77.875 122.1 78.4962 122.1 79.2417C122.17 79.9249 122.206 80.6394 122.206 81.3848V99.7417C122.206 99.8037 122.17 99.9279 122.1 100.114C122.1 100.301 122.1 100.456 122.1 100.58V100.673C122.1 101.73 123.338 102.351 125.814 102.537C126.451 102.599 126.982 102.661 127.406 102.723C128.821 102.91 129.529 103.531 129.529 104.587C129.529 105.892 129.069 106.544 128.149 106.544C128.078 106.544 127.831 106.513 127.406 106.451C127.053 106.451 126.557 106.42 125.92 106.358C125.284 106.295 124.576 106.233 123.798 106.171C123.02 106.109 122.1 106.047 121.038 105.985C119.977 105.985 118.951 105.985 117.96 105.985C116.97 105.985 115.944 105.985 114.882 105.985C113.821 106.047 112.901 106.109 112.123 106.171C111.345 106.233 110.637 106.295 110 106.358C109.363 106.42 108.868 106.482 108.514 106.544H107.877C106.887 106.544 106.392 105.861 106.392 104.494C106.392 103.624 107.736 103.034 110.425 102.723C111.203 102.599 111.804 102.506 112.229 102.444C113.432 102.258 114.21 101.916 114.564 101.419C114.918 100.922 115.095 100.052 115.095 98.8098V81.1983C115.095 77.2226 113.927 74.4583 111.592 72.9053C109.257 71.3522 106.71 70.5757 103.951 70.5757C101.899 70.5757 100.13 71.0105 98.6437 71.8804C97.158 72.6878 96.1674 73.4953 95.672 74.303C95.3889 74.9242 95.2474 75.7629 95.2474 76.8189V99.7417C95.2474 100.052 95.2474 100.332 95.2474 100.58C95.3183 100.767 95.3536 100.953 95.3536 101.139C95.4243 101.264 95.4951 101.419 95.566 101.605C95.7073 101.73 95.8135 101.854 95.8843 101.978C95.955 102.04 96.0965 102.102 96.3089 102.164C96.5919 102.227 96.8041 102.289 96.9456 102.351C97.0871 102.413 97.3348 102.475 97.6885 102.537C98.1132 102.599 98.4316 102.661 98.6437 102.723C98.8561 102.723 99.2098 102.755 99.7052 102.817C100.271 102.879 100.731 102.941 101.085 103.003C102.076 103.127 102.571 103.81 102.571 105.053C102.571 106.047 102.111 106.544 101.191 106.544L99.8114 106.358C98.9623 106.295 97.7947 106.202 96.3089 106.078C94.8938 106.016 93.4431 105.985 91.9573 105.985C90.5422 105.985 89.2332 106.016 88.0303 106.078C86.8275 106.14 85.8722 106.202 85.1647 106.264C84.528 106.327 84.1388 106.358 83.9973 106.358C83.0067 106.358 82.5113 105.736 82.5113 104.494C82.5113 103.81 82.7943 103.345 83.3603 103.096C83.9973 102.848 84.6693 102.723 85.3771 102.723C86.0844 102.723 86.7566 102.537 87.3936 102.164C88.1011 101.792 88.4903 101.17 88.561 100.301V76.6326C88.561 75.8249 88.3842 75.2347 88.0303 74.8622C87.7472 74.4893 86.8628 73.806 85.3771 72.8121C84.8817 72.5014 84.4924 72.2529 84.2094 72.0666C83.5727 71.6939 83.2541 71.3212 83.2541 70.9485C83.2541 70.6379 83.4312 70.3583 83.7849 70.1098C84.1388 69.7993 85.2 69.178 86.969 68.2461C88.8793 67.1902 90.5775 66.2583 92.0635 65.4508C93.2662 64.8916 93.9385 64.6121 94.08 64.6121C94.7169 64.6121 95.0353 64.9848 95.0353 65.7303V69.3643C95.0353 69.737 95.1768 69.9235 95.4598 69.9235Z" fill="#333131"/>
<path d="M186.665 32.8061V203.764H424.407V32.8061H186.665Z" stroke="#333131"/>
<path d="M281.125 101.73C281.195 101.73 281.761 101.388 282.823 100.705C283.884 99.9592 285.335 99.2447 287.174 98.5613C289.085 97.8781 290.995 97.5364 292.906 97.5364C293.896 97.5364 294.851 97.6296 295.771 97.8159C296.691 98.0023 297.54 98.2508 298.318 98.5613C299.097 98.872 299.804 99.2137 300.441 99.5863C301.149 99.9592 301.75 100.332 302.245 100.705C302.741 101.077 303.165 101.419 303.519 101.73C303.873 101.978 304.156 102.196 304.368 102.382L304.687 102.755C304.757 102.817 304.899 102.848 305.111 102.848C305.323 102.848 305.5 102.817 305.642 102.755C305.783 102.693 305.925 102.599 306.066 102.475C306.279 102.289 306.703 102.009 307.34 101.636C307.977 101.264 308.755 100.829 309.675 100.332C313.284 98.4683 316.786 97.5364 320.182 97.5364C323.366 97.5364 326.303 98.375 328.991 100.052C331.68 101.667 333.626 104.276 334.829 107.879C335.678 110.551 336.102 114.278 336.102 119.061V131.175C336.102 131.61 336.102 131.983 336.102 132.293C336.173 132.604 336.279 132.883 336.421 133.132C336.633 133.318 336.775 133.473 336.845 133.598C336.916 133.722 337.128 133.846 337.482 133.97C337.907 134.095 338.19 134.188 338.331 134.25C338.543 134.25 339.004 134.312 339.711 134.436C340.419 134.561 340.949 134.654 341.303 134.716C342.294 134.84 342.789 135.43 342.789 136.486C342.789 137.729 342.258 138.35 341.197 138.35C341.055 138.35 340.596 138.288 339.817 138.164C339.039 138.101 337.942 138.008 336.527 137.884C335.112 137.822 333.626 137.791 332.069 137.791C330.442 137.791 328.921 137.822 327.505 137.884C326.161 138.008 325.064 138.101 324.215 138.164C323.437 138.288 322.977 138.35 322.836 138.35C322.411 138.35 321.987 138.226 321.562 137.977C321.208 137.729 321.031 137.325 321.031 136.766C321.031 135.896 321.244 135.368 321.668 135.182C322.164 134.996 323.649 134.685 326.126 134.25C327.612 134.064 328.355 133.194 328.355 131.641V118.409C328.355 111.452 326.869 106.824 323.897 104.525C321.845 103.096 319.581 102.382 317.104 102.382C314.911 102.382 312.717 102.91 310.524 103.966C308.331 105.022 307.234 105.954 307.234 106.761L307.34 107.041C307.34 107.227 307.375 107.507 307.446 107.879C307.517 108.252 307.588 108.687 307.658 109.184C307.729 109.681 307.765 110.302 307.765 111.048C307.835 111.731 307.871 112.445 307.871 113.191V131.548C307.871 131.61 307.835 131.734 307.765 131.921C307.765 132.107 307.765 132.262 307.765 132.386V132.479C307.765 133.536 309.003 134.157 311.479 134.343C312.116 134.405 312.647 134.467 313.071 134.53C314.486 134.716 315.194 135.337 315.194 136.393C315.194 137.698 314.734 138.35 313.814 138.35C313.743 138.35 313.496 138.319 313.071 138.257C312.717 138.257 312.222 138.226 311.585 138.164C310.949 138.101 310.241 138.039 309.463 137.977C308.684 137.915 307.765 137.853 306.703 137.791C305.642 137.791 304.616 137.791 303.625 137.791C302.635 137.791 301.609 137.791 300.547 137.791C299.486 137.853 298.566 137.915 297.788 137.977C297.01 138.039 296.302 138.101 295.665 138.164C295.028 138.226 294.533 138.288 294.179 138.35H293.542C292.552 138.35 292.057 137.667 292.057 136.3C292.057 135.43 293.401 134.84 296.09 134.53C296.868 134.405 297.469 134.312 297.894 134.25C299.097 134.064 299.875 133.722 300.229 133.225C300.583 132.728 300.76 131.858 300.76 130.616V113.004C300.76 109.029 299.592 106.264 297.257 104.711C294.922 103.158 292.375 102.382 289.616 102.382C287.563 102.382 285.795 102.817 284.309 103.686C282.823 104.494 281.832 105.301 281.337 106.109C281.054 106.73 280.912 107.569 280.912 108.625V131.548C280.912 131.858 280.912 132.138 280.912 132.386C280.983 132.573 281.019 132.759 281.019 132.945C281.089 133.07 281.16 133.225 281.231 133.411C281.372 133.536 281.478 133.66 281.549 133.784C281.62 133.846 281.761 133.908 281.974 133.97C282.257 134.033 282.469 134.095 282.611 134.157C282.752 134.219 283 134.281 283.353 134.343C283.778 134.405 284.097 134.467 284.309 134.53C284.521 134.53 284.875 134.561 285.37 134.623C285.936 134.685 286.396 134.747 286.75 134.809C287.741 134.933 288.236 135.617 288.236 136.859C288.236 137.853 287.776 138.35 286.856 138.35L285.476 138.164C284.627 138.101 283.46 138.008 281.974 137.884C280.559 137.822 279.108 137.791 277.622 137.791C276.207 137.791 274.898 137.822 273.695 137.884C272.492 137.946 271.537 138.008 270.83 138.07C270.193 138.133 269.804 138.164 269.662 138.164C268.672 138.164 268.176 137.542 268.176 136.3C268.176 135.617 268.459 135.151 269.025 134.902C269.662 134.654 270.334 134.53 271.042 134.53C271.749 134.53 272.422 134.343 273.058 133.97C273.766 133.598 274.155 132.976 274.226 132.107V108.439C274.226 107.631 274.049 107.041 273.695 106.668C273.412 106.295 272.528 105.612 271.042 104.618C270.547 104.307 270.157 104.059 269.874 103.873C269.238 103.5 268.919 103.127 268.919 102.755C268.919 102.444 269.096 102.164 269.45 101.916C269.804 101.605 270.865 100.984 272.634 100.052C274.544 98.9963 276.242 98.0643 277.728 97.2569C278.931 96.6977 279.603 96.4182 279.745 96.4182C280.382 96.4182 280.7 96.7909 280.7 97.5364V101.17C280.7 101.543 280.842 101.73 281.125 101.73Z" fill="#333131"/>
</svg>
